<svg xmlns="http://www.w3.org/2000/svg" viewBox="0 0 100 100">
  <!-- Sunflower petals -->
  <g fill="#FFD700">
    <ellipse cx="50" cy="15" rx="8" ry="15" transform="rotate(0 50 50)"/>
    <ellipse cx="50" cy="15" rx="8" ry="15" transform="rotate(30 50 50)"/>
    <ellipse cx="50" cy="15" rx="8" ry="15" transform="rotate(60 50 50)"/>
    <ellipse cx="50" cy="15" rx="8" ry="15" transform="rotate(90 50 50)"/>
    <ellipse cx="50" cy="15" rx="8" ry="15" transform="rotate(120 50 50)"/>
    <ellipse cx="50" cy="15" rx="8" ry="15" transform="rotate(150 50 50)"/>
    <ellipse cx="50" cy="15" rx="8" ry="15" transform="rotate(180 50 50)"/>
    <ellipse cx="50" cy="15" rx="8" ry="15" transform="rotate(210 50 50)"/>
    <ellipse cx="50" cy="15" rx="8" ry="15" transform="rotate(240 50 50)"/>
    <ellipse cx="50" cy="15" rx="8" ry="15" transform="rotate(270 50 50)"/>
    <ellipse cx="50" cy="15" rx="8" ry="15" transform="rotate(300 50 50)"/>
    <ellipse cx="50" cy="15" rx="8" ry="15" transform="rotate(330 50 50)"/>
  </g>
  
  <!-- Sunflower center -->
  <circle cx="50" cy="50" r="18" fill="#8B4513"/>
  
  <!-- Seeds pattern in center -->
  <g fill="#654321" opacity="0.6">
    <circle cx="45" cy="45" r="2"/>
    <circle cx="55" cy="45" r="2"/>
    <circle cx="45" cy="55" r="2"/>
    <circle cx="55" cy="55" r="2"/>
    <circle cx="50" cy="50" r="2"/>
    <circle cx="42" cy="50" r="1.5"/>
    <circle cx="58" cy="50" r="1.5"/>
    <circle cx="50" cy="42" r="1.5"/>
    <circle cx="50" cy="58" r="1.5"/>
  </g>
</svg>
